<?xml version="1.0" encoding="utf-8"?>
<!-- Generator: Adobe Illustrator 24.1.2, SVG Export Plug-In . SVG Version: 6.00 Build 0)  -->
<svg version="1.1" id="Layer_1" xmlns="http://www.w3.org/2000/svg" xmlns:xlink="http://www.w3.org/1999/xlink" x="0px" y="0px"
	 viewBox="0 0 100 100" style="enable-background:new 0 0 100 100;" xml:space="preserve">
<style type="text/css">
	.st0{fill:#F5E9D3;}
	.st1{fill-rule:evenodd;clip-rule:evenodd;fill:#C9B37E;}
</style>
<path class="st0" d="M88.8,100H11.2C5,100,0,95,0,88.8V11.2C0,5,5,0,11.2,0h77.6C95,0,100,5,100,11.2v77.6C100,95,95,100,88.8,100z"
	/>
<path class="st1" d="M35,4.5c0.7,3.6,4.3,6.8,10.4,9.1c1.7,0.7,1.7,1-0.1,0.8c-1.9-0.2-3.6-0.8-5.6-1.9l-1.8-1h-3.5
	c-4.9,0-7.9,0.6-11.4,2.5c-1.6,0.8-2.9,1.6-2.2,1.5c3.2-0.9,7.9-1.3,9.1-0.8c0.6,0.3-0.5,0.8-4.9,2.4c-7,2.5-10.8,5-13.9,9
	c-1.4,1.8-1.4,2.1-0.1,1c2.5-2,6.9-4.2,7.5-3.7c0.1,0.1-1.3,1.5-3,3.3C7.8,34.3,4.3,40.3,4,46.3l-0.1,1.6l0.4-1c0.7-1.9,1.8-4,3-5.7
	c1.1-1.6,2.5-3.2,2.3-2.6C4.8,52.2,4.1,58,6.2,64.8l0.3,1.1l0.1-2.7c0.1-2.6,0.8-6.5,1.1-6.2c0.1,0.1,0.3,1.3,0.5,2.8
	c1.4,11.2,3.9,17.6,8.9,22.8c1.2,1.2,1.4,1.2,0.6-0.1c-1.3-2.3-2.7-6.2-2.5-6.8c0-0.1,0.8,0.9,1.8,2.2c7,9.7,12.6,14.5,19.4,16.4
	c2.2,0.6,2.3,0.6,0.8-0.3c-2.9-1.7-6.6-4.7-6.2-5c0.1-0.1,0.7,0.2,1.5,0.6c10,5,20.1,7.3,26.8,5.9c1.4-0.3,6-1.6,6-1.8
	c0,0-2,0-4.5,0c-3.1,0-4.7-0.1-4.9-0.2c-0.4-0.3-0.8-0.2,3.6-0.8c9.2-1.4,18.6-5.7,23.6-10.7c3-3,3.2-3.5,0.9-1.9
	c-2.5,1.7-2.8,1.6-1-0.3c7.4-8.1,11.8-17.3,12.3-25.8l0.1-1.8l-0.8,2.2c-0.8,2.4-1.7,4.6-1.9,4.5c-0.1-0.1,0-1.1,0.2-2.2
	c1.2-8.3-0.7-20.2-4.5-27.8c-1.3-2.6-1.5-2.7-0.9-0.4c0.8,3,0.7,3-1,0.1c-5.5-9.6-16.9-17.3-28.3-19.3c-4.5-0.8-4.8-0.8-3.5,0.1
	c0.5,0.3,1.4,1,2,1.6c1.1,1,1.3,1.1,3.1,1.5c22.5,5.3,35.3,29.8,27.2,52c-0.8,2.3-0.9,2.2-0.9-1.2c0-4.7-0.2-5.1-1-1.5
	c-2.6,11.8-8.2,19.5-17.3,23.7c-2.5,1.2-2.5,1.1-0.4-1.2c1.7-1.9,3-3.5,2.6-3.2c-0.2,0.1-1.3,0.8-2.6,1.7c-11,7-21.4,8-32,3
	c-2-0.9-1.9-1,1.3-0.8c3.5,0.2,3.8,0,1.4-0.7c-7.5-2.2-12.4-4.8-16.1-8.6C8,60.6,11.7,35,29.4,26.1c3.8-1.9,5.7-2.3,8.8-1.7
	c1.2,0.2,3.4,0.5,5,0.6c3.1,0.2,4.2,0.3,4.4,0.6c0.2,0.4-4.9,1.8-6.5,1.8c-1.8,0-1.9,0.2-0.1,0.7c1.3,0.3,2.6,0.3,6.6,0
	c1.2-0.1,1.4-0.1,1.9,0.4c0.9,0.9,1.5,1.1,3.9,1.7c3.8,0.9,6.8,2.8,7.9,4.7l0.5,0.8L61,36.2c-0.4,0.3-1,0.6-1.4,0.7
	c-2,0.3,0.1,0.8,2.5,0.6c2.1-0.2,2.3,0.2,0.6,1.1l-0.9,0.5l0.9,0c2.5,0,5.9-1.6,5.3-2.5c-0.1-0.1,0.1-0.5,0.3-0.8
	c0.5-0.7,0.4-0.9-0.3-0.6c-1.5,0.6-2.6,0-2-1.1c0.4-0.8,0.2-1.1-0.6-0.7c-1,0.6-1.5,0.2-3.9-2.8c-0.7-0.8-1.6-1.8-2.1-2.1l-0.9-0.6
	l0.5-0.2c1.4-0.5,4.1,0.1,7.4,1.8c2.2,1.1,2.2,1,1.7,2l-0.4,0.8l0.5-0.1c0.3-0.1,0.9-0.3,1.5-0.6c1.3-0.6,1.9-0.2,1.5,0.7
	c-0.4,0.9,0.4,0.5,3-1.4c1.7-1.3,2-2.9,0.6-3.4c-0.3-0.1-0.8-0.5-1-0.7c-0.4-0.5-1-0.5-1.7-0.2c-0.4,0.2-0.8,0-2.1-0.7
	c-2.6-1.4-3-1.7-2.8-2.6c0.3-1.6-0.7-2.6-5.4-5.4c-2.5-1.5-3.4-2.3-4.5-4c-1-1.5-2.3-2.6-4.2-3.5C52.2,10,50.8,9.3,50,8.9
	c-1.7-0.8-3.3-2.1-4-3.4c-0.6-1-0.9-0.6-0.4,0.7c0.7,2.1,2,3.4,4.8,4.8c1.9,1,3.1,1.9,3.8,3c0.6,0.9,0.4,1-0.6,0.3
	c-1.5-1.1-3.7-2-6.9-3.1c-5.2-1.7-8.8-3.9-10.9-6.4l-0.8-1L35,4.5z M36.1,16.2c1.4,0.7,2.7,1,4.7,1c4.8,0,7.5,0.8,9.1,2.5
	c1.2,1.3,1,1.4-0.7,0.6c-1.8-0.8-3.3-1.1-7-1.5c-4.5-0.4-5.9-1-7.4-2.9c-0.7-0.9-0.7-1.3,0-0.7C35,15.6,35.6,16,36.1,16.2 M36,21
	c1,0.2,2.2,0.3,4.8,0.3c3.7,0,4.5,0.1,6.1,0.9c0.5,0.3,0.9,0.5,0.9,0.5c0,0.2-10.4,0-11.1-0.2c-1.3-0.4-2.7-1.1-3.6-2
	c-1.2-1.1-1.1-1.2,0.4-0.5C34.1,20.4,35.3,20.8,36,21 M63,22.3c0.8,0.5,1.5,1.2,1.5,1.5c0,1-2.7,0.1-3.5-1.1
	C59.9,21.1,60.7,21,63,22.3 M40.3,38.1c-0.1,0.1-0.5,1.8-0.9,3.7s-1,4.6-1.3,6.2c-0.3,1.5-0.9,4.1-1.3,5.8c-0.6,3-0.8,3.4-1,3.2
	c-0.1-0.1-0.7-1.5-1.4-3.1c-1.9-4.2-2-4.2-3.8-0.9l-1.1,2.1h-10l0.1,0.7l0.1,0.7h10.7l0.9-1.5c0.5-0.8,1-1.5,1.1-1.5
	c0.2,0,0.3,0.1,2,3.9c2.2,4.8,2.4,4.8,3.5-1.1c1.8-9.1,2.9-13.6,2.9-12.1c0,0.2,0.3,2.5,0.8,5.3c3.5,22.8,3.3,21.9,4,21.9
	c0.5,0,0.8-0.9,1.8-5.6c2.3-10.8,2.6-12.1,2.7-12.3c0.1-0.1,0.6,1.2,1.2,2.8c2.1,6.1,2.1,6.1,4,2.3l1.2-2.4h23.5v-1.6l-11.9,0
	c-14.1,0.1-12.6-0.1-13.5,1.8c-0.4,0.8-0.8,1.5-0.9,1.5s-0.8-2-1.6-4.3c-1.9-5.7-2.4-6-3.2-2.3c-0.2,1.1-1,4.6-1.6,7.8
	s-1.3,5.9-1.4,6c-0.2,0.4-0.3,0.2-1.6-8.3c-0.5-3.2-1-6.4-1.5-9.6c-0.1-1-0.5-3.4-0.8-5.5c-0.5-3.8-0.7-4.2-1.2-4.2
	C40.6,37.9,40.4,38,40.3,38.1"/>
</svg>
