<svg xmlns="http://www.w3.org/2000/svg" viewBox="0 0 300 400" width="300" height="400">
  <rect width="300" height="400" fill="#FBF3E2"/>
  <rect x="55" y="268" width="190" height="16" rx="4" fill="#C9B37E" opacity="0.7"/>
  <rect x="70" y="284" width="12" height="50" rx="3" fill="#8B7355" opacity="0.5"/>
  <rect x="218" y="284" width="12" height="50" rx="3" fill="#8B7355" opacity="0.5"/>
  <line x1="0" y1="348" x2="300" y2="348" stroke="#C9B37E" stroke-width="1.5" stroke-dasharray="6 4" opacity="0.6"/>

  <!-- Same seated figure, wrists neutral (mid-position) -->
  <circle cx="150" cy="120" r="20" fill="#2A1810"/>
  <ellipse cx="150" cy="105" rx="20" ry="13" fill="#111"/>
  <rect x="143" y="138" width="14" height="15" rx="4" fill="#2A1810"/>
  <path d="M 132 152 L 168 152 L 164 268 L 136 268 Z" fill="#2A1810"/>
  <path d="M 110 255 L 190 255 L 188 276 L 112 276 Z" fill="#C9B37E"/>
  <rect x="110" y="244" width="70" height="22" rx="5" fill="#2A1810" transform="rotate(-3, 145, 255)"/>
  <rect x="120" y="250" width="70" height="22" rx="5" fill="#2A1810" transform="rotate(3, 155, 261)"/>
  <rect x="110" y="270" width="18" height="78" rx="5" fill="#2A1810"/>
  <rect x="172" y="270" width="18" height="78" rx="5" fill="#2A1810"/>

  <!-- Forearms on thighs -->
  <rect x="76" y="232" width="58" height="18" rx="6" fill="#2A1810" transform="rotate(-8, 105, 241)"/>
  <rect x="166" y="232" width="58" height="18" rx="6" fill="#2A1810" transform="rotate(8, 195, 241)"/>
  <!-- Wrists neutral (straight, horizontal) -->
  <rect x="58" y="238" width="28" height="14" rx="5" fill="#2A1810"/>
  <rect x="214" y="238" width="28" height="14" rx="5" fill="#2A1810"/>

  <!-- Barbell neutral height -->
  <line x1="44" y1="246" x2="256" y2="246" stroke="#555" stroke-width="7" stroke-linecap="round"/>
  <circle cx="51" cy="246" r="12" fill="#444" stroke="#333" stroke-width="1.5"/>
  <circle cx="51" cy="246" r="6" fill="#666"/>
  <circle cx="249" cy="246" r="12" fill="#444" stroke="#333" stroke-width="1.5"/>
  <circle cx="249" cy="246" r="6" fill="#666"/>

  <text x="150" y="378" text-anchor="middle" font-family="Georgia, serif" font-size="12" fill="#8B7355" letter-spacing="1">STEP 2 — WRISTS NEUTRAL</text>
</svg>
